<mxfile host="processflow.sharehoo.cn" modified="2021-04-22T03:24:06.127Z" agent="5.0 (Windows NT 10.0; Win64; x64) AppleWebKit/537.36 (KHTML, like Gecko) Chrome/89.0.4389.114 Safari/537.36" etag="ZVyGBT1YzZZdkqc3JIoG" version="14.3.2" type="github">
  <diagram id="R2lEEEUBdFMjLlhIrx00" name="Page-1">
    <mxGraphModel dx="2591" dy="762" grid="1" gridSize="10" guides="1" tooltips="1" connect="1" arrows="1" fold="1" page="1" pageScale="1" pageWidth="1169" pageHeight="827" math="0" shadow="0" extFonts="Permanent Marker^https://fonts.googleapis.com/css?family=Permanent+Marker">
      <root>
        <mxCell id="0" />
        <mxCell id="1" parent="0" />
        <mxCell id="Y6p2eH5TLsVnm-hyPsuy-26" value="" style="rounded=1;whiteSpace=wrap;html=1;fillColor=#f5f5f5;strokeColor=#666666;fontColor=#333333;glass=0;shadow=0;" vertex="1" parent="1">
          <mxGeometry x="-10" y="140" width="1140" height="670" as="geometry" />
        </mxCell>
        <mxCell id="Y6p2eH5TLsVnm-hyPsuy-27" value="" style="endArrow=ERzeroToMany;html=1;endFill=1;" edge="1" parent="1">
          <mxGeometry width="50" height="50" relative="1" as="geometry">
            <mxPoint x="55" y="260" as="sourcePoint" />
            <mxPoint x="155" y="260" as="targetPoint" />
            <Array as="points" />
          </mxGeometry>
        </mxCell>
        <mxCell id="Y6p2eH5TLsVnm-hyPsuy-28" value="一对多" style="text;html=1;strokeColor=none;fillColor=none;align=center;verticalAlign=middle;whiteSpace=wrap;rounded=0;" vertex="1" parent="1">
          <mxGeometry x="75" y="240" width="40" height="20" as="geometry" />
        </mxCell>
        <mxCell id="Y6p2eH5TLsVnm-hyPsuy-29" value="" style="endArrow=none;html=1;" edge="1" parent="1">
          <mxGeometry width="50" height="50" relative="1" as="geometry">
            <mxPoint x="55" y="290" as="sourcePoint" />
            <mxPoint x="135" y="290" as="targetPoint" />
          </mxGeometry>
        </mxCell>
        <mxCell id="Y6p2eH5TLsVnm-hyPsuy-30" value="一对一" style="text;html=1;strokeColor=none;fillColor=none;align=center;verticalAlign=middle;whiteSpace=wrap;rounded=0;" vertex="1" parent="1">
          <mxGeometry x="75" y="270" width="40" height="20" as="geometry" />
        </mxCell>
        <mxCell id="Y6p2eH5TLsVnm-hyPsuy-31" value="" style="endArrow=ERzeroToMany;html=1;endFill=1;" edge="1" parent="1">
          <mxGeometry width="50" height="50" relative="1" as="geometry">
            <mxPoint x="50" y="320" as="sourcePoint" />
            <mxPoint x="150" y="320" as="targetPoint" />
            <Array as="points" />
          </mxGeometry>
        </mxCell>
        <mxCell id="Y6p2eH5TLsVnm-hyPsuy-32" value="" style="endArrow=ERzeroToMany;html=1;endFill=1;" edge="1" parent="1">
          <mxGeometry width="50" height="50" relative="1" as="geometry">
            <mxPoint x="150" y="320" as="sourcePoint" />
            <mxPoint x="40" y="320" as="targetPoint" />
            <Array as="points" />
          </mxGeometry>
        </mxCell>
        <mxCell id="Y6p2eH5TLsVnm-hyPsuy-33" value="多对多" style="text;html=1;strokeColor=none;fillColor=none;align=center;verticalAlign=middle;whiteSpace=wrap;rounded=0;" vertex="1" parent="1">
          <mxGeometry x="80" y="300" width="40" height="20" as="geometry" />
        </mxCell>
        <mxCell id="Y6p2eH5TLsVnm-hyPsuy-34" value="&lt;div style=&quot;background-color: rgb(255 , 255 , 254) ; font-family: &amp;#34;consolas&amp;#34; , &amp;#34;courier new&amp;#34; , monospace ; font-size: 14px ; line-height: 19px&quot;&gt;SmartCampus__AccessGuard__CST&lt;/div&gt;&lt;div style=&quot;background-color: rgb(255 , 255 , 254) ; font-family: &amp;#34;consolas&amp;#34; , &amp;#34;courier new&amp;#34; , monospace ; font-size: 14px ; line-height: 19px&quot;&gt;通行出入口&lt;/div&gt;" style="rounded=0;whiteSpace=wrap;html=1;fillColor=#dae8fc;strokeColor=#6c8ebf;" vertex="1" parent="1">
          <mxGeometry x="410" y="290" width="310" height="60" as="geometry" />
        </mxCell>
        <mxCell id="Y6p2eH5TLsVnm-hyPsuy-35" style="edgeStyle=orthogonalEdgeStyle;rounded=0;orthogonalLoop=1;jettySize=auto;html=1;entryX=1;entryY=0.5;entryDx=0;entryDy=0;endArrow=ERzeroToMany;endFill=1;" edge="1" parent="1" source="Y6p2eH5TLsVnm-hyPsuy-36" target="Y6p2eH5TLsVnm-hyPsuy-34">
          <mxGeometry relative="1" as="geometry" />
        </mxCell>
        <mxCell id="Y6p2eH5TLsVnm-hyPsuy-36" value="&lt;div style=&quot;background-color: rgb(255 , 255 , 254) ; font-family: &amp;#34;consolas&amp;#34; , &amp;#34;courier new&amp;#34; , monospace ; font-size: 14px ; line-height: 19px&quot;&gt;&lt;div style=&quot;font-family: &amp;#34;consolas&amp;#34; , &amp;#34;courier new&amp;#34; , monospace ; line-height: 19px&quot;&gt;SPA_Basic&lt;/div&gt;&lt;/div&gt;&lt;div style=&quot;background-color: rgb(255 , 255 , 254) ; font-family: &amp;#34;consolas&amp;#34; , &amp;#34;courier new&amp;#34; , monospace ; font-size: 14px ; line-height: 19px&quot;&gt;空间表&lt;/div&gt;" style="rounded=0;whiteSpace=wrap;html=1;fillColor=#ffe6cc;strokeColor=#d79b00;" vertex="1" parent="1">
          <mxGeometry x="810" y="290" width="260" height="60" as="geometry" />
        </mxCell>
        <mxCell id="Y6p2eH5TLsVnm-hyPsuy-37" value="&lt;font face=&quot;consolas, courier new, monospace&quot;&gt;&lt;span style=&quot;font-size: 14px&quot;&gt;GA_Permission&lt;/span&gt;&lt;/font&gt;&lt;div style=&quot;background-color: rgb(255 , 255 , 254) ; font-family: &amp;#34;consolas&amp;#34; , &amp;#34;courier new&amp;#34; , monospace ; font-size: 14px ; line-height: 19px&quot;&gt;权限表&lt;br&gt;&lt;/div&gt;" style="rounded=0;whiteSpace=wrap;html=1;fillColor=#ffe6cc;strokeColor=#d79b00;" vertex="1" parent="1">
          <mxGeometry x="40" y="414" width="260" height="60" as="geometry" />
        </mxCell>
        <mxCell id="Y6p2eH5TLsVnm-hyPsuy-38" style="edgeStyle=orthogonalEdgeStyle;rounded=0;orthogonalLoop=1;jettySize=auto;html=1;entryX=1;entryY=0.5;entryDx=0;entryDy=0;endArrow=ERzeroToMany;endFill=1;" edge="1" parent="1" source="Y6p2eH5TLsVnm-hyPsuy-40" target="Y6p2eH5TLsVnm-hyPsuy-37">
          <mxGeometry relative="1" as="geometry" />
        </mxCell>
        <mxCell id="Y6p2eH5TLsVnm-hyPsuy-39" style="edgeStyle=orthogonalEdgeStyle;rounded=0;orthogonalLoop=1;jettySize=auto;html=1;entryX=0.5;entryY=0;entryDx=0;entryDy=0;endArrow=ERzeroToMany;endFill=1;" edge="1" parent="1" source="Y6p2eH5TLsVnm-hyPsuy-40" target="Y6p2eH5TLsVnm-hyPsuy-46">
          <mxGeometry relative="1" as="geometry" />
        </mxCell>
        <mxCell id="Y6p2eH5TLsVnm-hyPsuy-40" value="&lt;font face=&quot;consolas, courier new, monospace&quot;&gt;&lt;span style=&quot;font-size: 14px&quot;&gt;SmartCampus__PersonPermissionGroup__CST&lt;/span&gt;&lt;/font&gt;&lt;br&gt;&lt;div style=&quot;background-color: rgb(255 , 255 , 254) ; font-family: &amp;#34;consolas&amp;#34; , &amp;#34;courier new&amp;#34; , monospace ; font-size: 14px ; line-height: 19px&quot;&gt;人员权限群组表&lt;/div&gt;" style="rounded=0;whiteSpace=wrap;html=1;fillColor=#dae8fc;strokeColor=#6c8ebf;" vertex="1" parent="1">
          <mxGeometry x="410" y="414" width="310" height="60" as="geometry" />
        </mxCell>
        <mxCell id="Y6p2eH5TLsVnm-hyPsuy-41" style="edgeStyle=orthogonalEdgeStyle;rounded=0;orthogonalLoop=1;jettySize=auto;html=1;entryX=0.5;entryY=0;entryDx=0;entryDy=0;endArrow=ERzeroToMany;endFill=1;" edge="1" parent="1" source="Y6p2eH5TLsVnm-hyPsuy-46" target="Y6p2eH5TLsVnm-hyPsuy-48">
          <mxGeometry relative="1" as="geometry" />
        </mxCell>
        <mxCell id="Y6p2eH5TLsVnm-hyPsuy-42" style="edgeStyle=orthogonalEdgeStyle;rounded=0;orthogonalLoop=1;jettySize=auto;html=1;entryX=0.433;entryY=0.017;entryDx=0;entryDy=0;entryPerimeter=0;endArrow=ERzeroToMany;endFill=1;" edge="1" parent="1" source="Y6p2eH5TLsVnm-hyPsuy-46" target="Y6p2eH5TLsVnm-hyPsuy-49">
          <mxGeometry relative="1" as="geometry" />
        </mxCell>
        <mxCell id="Y6p2eH5TLsVnm-hyPsuy-43" style="edgeStyle=orthogonalEdgeStyle;rounded=0;orthogonalLoop=1;jettySize=auto;html=1;endArrow=ERzeroToMany;endFill=1;" edge="1" parent="1" source="Y6p2eH5TLsVnm-hyPsuy-46">
          <mxGeometry relative="1" as="geometry">
            <mxPoint x="770" y="680" as="targetPoint" />
            <Array as="points">
              <mxPoint x="565" y="640" />
              <mxPoint x="770" y="640" />
            </Array>
          </mxGeometry>
        </mxCell>
        <mxCell id="Y6p2eH5TLsVnm-hyPsuy-44" style="edgeStyle=orthogonalEdgeStyle;rounded=0;orthogonalLoop=1;jettySize=auto;html=1;endArrow=ERzeroToMany;endFill=1;" edge="1" parent="1" source="Y6p2eH5TLsVnm-hyPsuy-46" target="Y6p2eH5TLsVnm-hyPsuy-50">
          <mxGeometry relative="1" as="geometry">
            <Array as="points">
              <mxPoint x="565" y="640" />
              <mxPoint x="970" y="640" />
            </Array>
          </mxGeometry>
        </mxCell>
        <mxCell id="Y6p2eH5TLsVnm-hyPsuy-45" style="edgeStyle=orthogonalEdgeStyle;rounded=0;orthogonalLoop=1;jettySize=auto;html=1;entryX=0.467;entryY=-0.067;entryDx=0;entryDy=0;entryPerimeter=0;endArrow=ERzeroToMany;endFill=1;" edge="1" parent="1" source="Y6p2eH5TLsVnm-hyPsuy-46" target="Y6p2eH5TLsVnm-hyPsuy-52">
          <mxGeometry relative="1" as="geometry" />
        </mxCell>
        <mxCell id="Y6p2eH5TLsVnm-hyPsuy-46" value="&lt;font face=&quot;consolas, courier new, monospace&quot;&gt;&lt;span style=&quot;font-size: 14px&quot;&gt;SmartCampus__PersonPermissionGrant__CST&lt;/span&gt;&lt;/font&gt;&lt;div style=&quot;background-color: rgb(255 , 255 , 254) ; font-family: &amp;#34;consolas&amp;#34; , &amp;#34;courier new&amp;#34; , monospace ; font-size: 14px ; line-height: 19px&quot;&gt;人员权限授权关联表&lt;/div&gt;" style="rounded=0;whiteSpace=wrap;html=1;fillColor=#dae8fc;strokeColor=#6c8ebf;" vertex="1" parent="1">
          <mxGeometry x="410" y="540" width="310" height="60" as="geometry" />
        </mxCell>
        <mxCell id="Y6p2eH5TLsVnm-hyPsuy-47" style="edgeStyle=orthogonalEdgeStyle;rounded=0;orthogonalLoop=1;jettySize=auto;html=1;entryX=0;entryY=0.5;entryDx=0;entryDy=0;endArrow=ERzeroToMany;endFill=1;" edge="1" parent="1" source="Y6p2eH5TLsVnm-hyPsuy-48" target="Y6p2eH5TLsVnm-hyPsuy-46">
          <mxGeometry relative="1" as="geometry">
            <Array as="points">
              <mxPoint x="130" y="570" />
            </Array>
          </mxGeometry>
        </mxCell>
        <mxCell id="Y6p2eH5TLsVnm-hyPsuy-48" value="&lt;font face=&quot;consolas, courier new, monospace&quot;&gt;&lt;span style=&quot;font-size: 14px&quot;&gt;GA_TimeSchemeDef&lt;/span&gt;&lt;/font&gt;&lt;div style=&quot;background-color: rgb(255 , 255 , 254) ; font-family: &amp;#34;consolas&amp;#34; , &amp;#34;courier new&amp;#34; , monospace ; font-size: 14px ; line-height: 19px&quot;&gt;时间计划表&lt;/div&gt;" style="rounded=0;whiteSpace=wrap;html=1;fillColor=#dae8fc;strokeColor=#6c8ebf;" vertex="1" parent="1">
          <mxGeometry x="40" y="680" width="180" height="60" as="geometry" />
        </mxCell>
        <mxCell id="Y6p2eH5TLsVnm-hyPsuy-49" value="&lt;div style=&quot;background-color: rgb(255 , 255 , 254) ; font-family: &amp;#34;consolas&amp;#34; , &amp;#34;courier new&amp;#34; , monospace ; font-size: 14px ; line-height: 19px&quot;&gt;PE_Person&lt;/div&gt;&lt;div style=&quot;background-color: rgb(255 , 255 , 254) ; font-family: &amp;#34;consolas&amp;#34; , &amp;#34;courier new&amp;#34; , monospace ; font-size: 14px ; line-height: 19px&quot;&gt;人员表&lt;/div&gt;" style="rounded=0;whiteSpace=wrap;html=1;fillColor=#ffe6cc;strokeColor=#d79b00;" vertex="1" parent="1">
          <mxGeometry x="280" y="680" width="180" height="60" as="geometry" />
        </mxCell>
        <mxCell id="Y6p2eH5TLsVnm-hyPsuy-50" value="&lt;div style=&quot;background-color: rgb(255 , 255 , 254) ; font-family: &amp;#34;consolas&amp;#34; , &amp;#34;courier new&amp;#34; , monospace ; font-size: 14px ; line-height: 19px&quot;&gt;&lt;div style=&quot;font-family: &amp;#34;consolas&amp;#34; , &amp;#34;courier new&amp;#34; , monospace ; line-height: 19px&quot;&gt;PE_PersonGroup&lt;/div&gt;&lt;/div&gt;&lt;div style=&quot;background-color: rgb(255 , 255 , 254) ; font-family: &amp;#34;consolas&amp;#34; , &amp;#34;courier new&amp;#34; , monospace ; font-size: 14px ; line-height: 19px&quot;&gt;人员群组表&lt;/div&gt;" style="rounded=0;whiteSpace=wrap;html=1;fillColor=#ffe6cc;strokeColor=#d79b00;" vertex="1" parent="1">
          <mxGeometry x="890" y="680" width="180" height="60" as="geometry" />
        </mxCell>
        <mxCell id="Y6p2eH5TLsVnm-hyPsuy-51" style="edgeStyle=orthogonalEdgeStyle;rounded=0;orthogonalLoop=1;jettySize=auto;html=1;entryX=0.5;entryY=1;entryDx=0;entryDy=0;endArrow=ERzeroToMany;endFill=1;" edge="1" parent="1" source="Y6p2eH5TLsVnm-hyPsuy-52" target="Y6p2eH5TLsVnm-hyPsuy-46">
          <mxGeometry relative="1" as="geometry">
            <Array as="points">
              <mxPoint x="565" y="670" />
              <mxPoint x="565" y="670" />
            </Array>
          </mxGeometry>
        </mxCell>
        <mxCell id="Y6p2eH5TLsVnm-hyPsuy-52" value="&lt;div style=&quot;background-color: rgb(255 , 255 , 254) ; font-family: &amp;#34;consolas&amp;#34; , &amp;#34;courier new&amp;#34; , monospace ; font-size: 14px ; line-height: 19px&quot;&gt;PE_PersonType&lt;/div&gt;&lt;div style=&quot;background-color: rgb(255 , 255 , 254) ; font-family: &amp;#34;consolas&amp;#34; , &amp;#34;courier new&amp;#34; , monospace ; font-size: 14px ; line-height: 19px&quot;&gt;人员类型表&lt;/div&gt;" style="rounded=0;whiteSpace=wrap;html=1;fillColor=#ffe6cc;strokeColor=#d79b00;" vertex="1" parent="1">
          <mxGeometry x="480" y="680" width="180" height="60" as="geometry" />
        </mxCell>
        <mxCell id="Y6p2eH5TLsVnm-hyPsuy-53" value="&lt;div style=&quot;background-color: rgb(255 , 255 , 254) ; font-family: &amp;#34;consolas&amp;#34; , &amp;#34;courier new&amp;#34; , monospace ; font-size: 14px ; line-height: 19px&quot;&gt;&lt;div style=&quot;font-family: &amp;#34;consolas&amp;#34; , &amp;#34;courier new&amp;#34; , monospace ; line-height: 19px&quot;&gt;ORG_Organization&lt;/div&gt;&lt;/div&gt;&lt;div style=&quot;background-color: rgb(255 , 255 , 254) ; font-family: &amp;#34;consolas&amp;#34; , &amp;#34;courier new&amp;#34; , monospace ; font-size: 14px ; line-height: 19px&quot;&gt;组织表&lt;/div&gt;" style="rounded=0;whiteSpace=wrap;html=1;fillColor=#ffe6cc;strokeColor=#d79b00;" vertex="1" parent="1">
          <mxGeometry x="680" y="680" width="180" height="60" as="geometry" />
        </mxCell>
        <mxCell id="Y6p2eH5TLsVnm-hyPsuy-54" value="业务表" style="rounded=0;whiteSpace=wrap;html=1;fillColor=#dae8fc;strokeColor=#6c8ebf;" vertex="1" parent="1">
          <mxGeometry x="190" y="180" width="120" height="60" as="geometry" />
        </mxCell>
        <mxCell id="Y6p2eH5TLsVnm-hyPsuy-55" value="被关联表" style="rounded=0;whiteSpace=wrap;html=1;fillColor=#ffe6cc;strokeColor=#d79b00;" vertex="1" parent="1">
          <mxGeometry x="190" y="260" width="120" height="60" as="geometry" />
        </mxCell>
        <mxCell id="Y6p2eH5TLsVnm-hyPsuy-57" value="人员通行（Person Pass）" style="text;html=1;strokeColor=none;fillColor=none;align=center;verticalAlign=middle;whiteSpace=wrap;rounded=0;shadow=0;glass=0;strokeWidth=6;fontSize=25;fontStyle=1" vertex="1" parent="1">
          <mxGeometry x="680" y="150" width="380" height="80" as="geometry" />
        </mxCell>
      </root>
    </mxGraphModel>
  </diagram>
</mxfile>
